M48
; DRILL file {KiCad 7.0.10-7.0.10~ubuntu22.04.1} date 2024年01月24日 15時58分00秒
; FORMAT={-:-/ absolute / metric / decimal}
; #@! TF.CreationDate,2024-01-24T15:58:00+09:00
; #@! TF.GenerationSoftware,Kicad,Pcbnew,7.0.10-7.0.10~ubuntu22.04.1
; #@! TF.FileFunction,MixedPlating,1,2
FMAT,2
METRIC
; #@! TA.AperFunction,Plated,PTH,ViaDrill
T1C0.400
; #@! TA.AperFunction,Plated,PTH,ComponentDrill
T2C0.700
; #@! TA.AperFunction,Plated,PTH,ComponentDrill
T3C0.750
; #@! TA.AperFunction,Plated,PTH,ComponentDrill
T4C0.762
; #@! TA.AperFunction,Plated,PTH,ComponentDrill
T5C0.800
; #@! TA.AperFunction,Plated,PTH,ComponentDrill
T6C1.000
; #@! TA.AperFunction,Plated,PTH,ComponentDrill
T7C1.100
; #@! TA.AperFunction,NonPlated,NPTH,ComponentDrill
T8C1.100
; #@! TA.AperFunction,NonPlated,NPTH,ComponentDrill
T9C1.500
%
G90
G05
T1
X59.69Y-53.975
X59.69Y-103.975
X63.5Y-43.815
X63.5Y-48.895
X63.5Y-93.815
X63.5Y-98.895
X64.77Y-47.625
X64.77Y-97.625
X67.945Y-38.1
X67.945Y-88.1
X72.39Y-47.625
X72.39Y-97.625
X106.69Y-53.975
X106.69Y-103.975
X110.5Y-43.815
X110.5Y-48.895
X110.5Y-93.815
X110.5Y-98.895
X111.77Y-47.625
X111.77Y-97.625
X114.945Y-38.1
X114.945Y-88.1
X119.39Y-47.625
X119.39Y-97.625
T2
X31.75Y-48.26
X31.75Y-50.82
X31.75Y-63.5
X31.75Y-98.26
X31.75Y-100.82
X31.75Y-113.5
X36.83Y-48.26
X36.83Y-50.82
X36.83Y-63.5
X36.83Y-98.26
X36.83Y-100.82
X36.83Y-113.5
X48.895Y-66.04
X48.895Y-116.04
X48.92Y-50.8
X48.92Y-63.5
X48.92Y-100.8
X48.92Y-113.5
X53.975Y-66.04
X53.975Y-116.04
X54.0Y-50.8
X54.0Y-63.5
X54.0Y-100.8
X54.0Y-113.5
X58.42Y-58.42
X58.42Y-63.5
X58.42Y-108.42
X58.42Y-113.5
X60.833Y-58.42
X60.833Y-63.5
X60.833Y-108.42
X60.833Y-113.5
X78.75Y-48.26
X78.75Y-50.82
X78.75Y-63.5
X78.75Y-98.26
X78.75Y-100.82
X78.75Y-113.5
X83.83Y-48.26
X83.83Y-50.82
X83.83Y-63.5
X83.83Y-98.26
X83.83Y-100.82
X83.83Y-113.5
X95.895Y-66.04
X95.895Y-116.04
X95.92Y-50.8
X95.92Y-63.5
X95.92Y-100.8
X95.92Y-113.5
X100.975Y-66.04
X100.975Y-116.04
X101.0Y-50.8
X101.0Y-63.5
X101.0Y-100.8
X101.0Y-113.5
X105.42Y-58.42
X105.42Y-63.5
X105.42Y-108.42
X105.42Y-113.5
X107.833Y-58.42
X107.833Y-63.5
X107.833Y-108.42
X107.833Y-113.5
T3
X56.562Y-49.19
X56.562Y-99.19
X57.832Y-49.19
X57.832Y-99.19
X59.102Y-49.19
X59.102Y-99.19
X103.562Y-49.19
X103.562Y-99.19
X104.832Y-49.19
X104.832Y-99.19
X106.102Y-49.19
X106.102Y-99.19
T4
X33.655Y-22.5
X33.655Y-25.0
X33.655Y-27.5
X33.655Y-72.5
X33.655Y-75.0
X33.655Y-77.5
X45.875Y-22.0
X45.875Y-72.0
X48.415Y-22.0
X48.415Y-72.0
X50.955Y-22.0
X50.955Y-72.0
X53.495Y-22.0
X53.495Y-72.0
X64.649Y-34.925
X64.649Y-42.545
X64.649Y-84.925
X64.649Y-92.545
X64.73Y-50.82
X64.73Y-100.82
X67.189Y-34.925
X67.189Y-42.545
X67.189Y-84.925
X67.189Y-92.545
X69.729Y-34.925
X69.729Y-42.545
X69.729Y-84.925
X69.729Y-92.545
X69.73Y-50.82
X69.73Y-100.82
X72.269Y-34.925
X72.269Y-42.545
X72.269Y-84.925
X72.269Y-92.545
X80.655Y-22.5
X80.655Y-25.0
X80.655Y-27.5
X80.655Y-72.5
X80.655Y-75.0
X80.655Y-77.5
X92.875Y-22.0
X92.875Y-72.0
X95.415Y-22.0
X95.415Y-72.0
X97.955Y-22.0
X97.955Y-72.0
X100.495Y-22.0
X100.495Y-72.0
X111.649Y-34.925
X111.649Y-42.545
X111.649Y-84.925
X111.649Y-92.545
X111.73Y-50.82
X111.73Y-100.82
X114.189Y-34.925
X114.189Y-42.545
X114.189Y-84.925
X114.189Y-92.545
X116.729Y-34.925
X116.729Y-42.545
X116.729Y-84.925
X116.729Y-92.545
X116.73Y-50.82
X116.73Y-100.82
X119.269Y-34.925
X119.269Y-42.545
X119.269Y-84.925
X119.269Y-92.545
T5
X33.655Y-39.831
X33.655Y-44.831
X33.655Y-89.831
X33.655Y-94.831
X66.08Y-31.115
X66.08Y-81.115
X71.08Y-31.115
X71.08Y-81.115
X80.655Y-39.831
X80.655Y-44.831
X80.655Y-89.831
X80.655Y-94.831
X113.08Y-31.115
X113.08Y-81.115
X118.08Y-31.115
X118.08Y-81.115
T6
X33.5Y-34.925
X33.5Y-84.925
X53.5Y-34.925
X53.5Y-84.925
X63.6Y-22.372
X63.6Y-24.912
X63.6Y-27.452
X63.6Y-72.372
X63.6Y-74.912
X63.6Y-77.452
X80.5Y-34.925
X80.5Y-84.925
X100.5Y-34.925
X100.5Y-84.925
X110.6Y-22.372
X110.6Y-24.912
X110.6Y-27.452
X110.6Y-72.372
X110.6Y-74.912
X110.6Y-77.452
T7
X31.996Y-53.92
X31.996Y-60.42
X31.996Y-103.92
X31.996Y-110.42
X36.496Y-53.92
X36.496Y-60.42
X36.496Y-103.92
X36.496Y-110.42
X39.596Y-60.508
X39.596Y-65.008
X39.596Y-110.508
X39.596Y-115.008
X39.723Y-49.332
X39.723Y-53.832
X39.723Y-99.332
X39.723Y-103.832
X46.096Y-60.508
X46.096Y-65.008
X46.096Y-110.508
X46.096Y-115.008
X46.223Y-49.332
X46.223Y-53.832
X46.223Y-99.332
X46.223Y-103.832
X49.45Y-53.92
X49.45Y-60.42
X49.45Y-103.92
X49.45Y-110.42
X53.95Y-53.92
X53.95Y-60.42
X53.95Y-103.92
X53.95Y-110.42
X63.726Y-59.345
X63.726Y-63.845
X63.726Y-109.345
X63.726Y-113.845
X70.226Y-59.345
X70.226Y-63.845
X70.226Y-109.345
X70.226Y-113.845
X78.996Y-53.92
X78.996Y-60.42
X78.996Y-103.92
X78.996Y-110.42
X83.496Y-53.92
X83.496Y-60.42
X83.496Y-103.92
X83.496Y-110.42
X86.596Y-60.508
X86.596Y-65.008
X86.596Y-110.508
X86.596Y-115.008
X86.723Y-49.332
X86.723Y-53.832
X86.723Y-99.332
X86.723Y-103.832
X93.096Y-60.508
X93.096Y-65.008
X93.096Y-110.508
X93.096Y-115.008
X93.223Y-49.332
X93.223Y-53.832
X93.223Y-99.332
X93.223Y-103.832
X96.45Y-53.92
X96.45Y-60.42
X96.45Y-103.92
X96.45Y-110.42
X100.95Y-53.92
X100.95Y-60.42
X100.95Y-103.92
X100.95Y-110.42
X110.726Y-59.345
X110.726Y-63.845
X110.726Y-109.345
X110.726Y-113.845
X117.226Y-59.345
X117.226Y-63.845
X117.226Y-109.345
X117.226Y-113.845
T8
X67.23Y-47.07
X67.23Y-54.57
X67.23Y-97.07
X67.23Y-104.57
X114.23Y-47.07
X114.23Y-54.57
X114.23Y-97.07
X114.23Y-104.57
T9
X39.4Y-39.325
X39.4Y-89.325
X47.5Y-25.325
X47.5Y-75.325
X55.6Y-39.325
X55.6Y-89.325
X86.4Y-39.325
X86.4Y-89.325
X94.5Y-25.325
X94.5Y-75.325
X102.6Y-39.325
X102.6Y-89.325
M30
