%TF.GenerationSoftware,KiCad,Pcbnew,7.0.10-7.0.10~ubuntu22.04.1*%
%TF.CreationDate,2024-01-24T15:57:41+09:00*%
%TF.ProjectId,pcb-ch32-minigameconsole-panelize,7063622d-6368-4333-922d-6d696e696761,rev?*%
%TF.SameCoordinates,Original*%
%TF.FileFunction,Soldermask,Bot*%
%TF.FilePolarity,Negative*%
%FSLAX46Y46*%
G04 Gerber Fmt 4.6, Leading zero omitted, Abs format (unit mm)*
G04 Created by KiCad (PCBNEW 7.0.10-7.0.10~ubuntu22.04.1) date 2024-01-24 15:57:41*
%MOMM*%
%LPD*%
G01*
G04 APERTURE LIST*
%ADD10C,2.000000*%
%ADD11R,1.050000X1.500000*%
%ADD12O,1.050000X1.500000*%
%ADD13C,1.524000*%
%ADD14C,1.200000*%
%ADD15C,1.600000*%
%ADD16C,1.400000*%
%ADD17O,1.400000X1.400000*%
%ADD18R,1.700000X1.700000*%
%ADD19O,1.700000X1.700000*%
%ADD20C,1.762000*%
G04 APERTURE END LIST*
D10*
%TO.C,SW2*%
X86723000Y-99332000D03*
X93223000Y-99332000D03*
X86723000Y-103832000D03*
X93223000Y-103832000D03*
%TD*%
%TO.C,SW4*%
X96450000Y-110420000D03*
X96450000Y-103920000D03*
X100950000Y-110420000D03*
X100950000Y-103920000D03*
%TD*%
D11*
%TO.C,Q1*%
X59102000Y-49190000D03*
D12*
X57832000Y-49190000D03*
X56562000Y-49190000D03*
%TD*%
D10*
%TO.C,SW2*%
X86723000Y-49332000D03*
X93223000Y-49332000D03*
X86723000Y-53832000D03*
X93223000Y-53832000D03*
%TD*%
D13*
%TO.C,SW1*%
X33655000Y-77500000D03*
X33655000Y-75000000D03*
X33655000Y-72500000D03*
%TD*%
%TO.C,U2*%
X92875000Y-22000000D03*
X95415000Y-22000000D03*
X97955000Y-22000000D03*
X100495000Y-22000000D03*
%TD*%
%TO.C,U2*%
X45875000Y-22000000D03*
X48415000Y-22000000D03*
X50955000Y-22000000D03*
X53495000Y-22000000D03*
%TD*%
D10*
%TO.C,SW2*%
X39723000Y-49332000D03*
X46223000Y-49332000D03*
X39723000Y-53832000D03*
X46223000Y-53832000D03*
%TD*%
D13*
%TO.C,SW1*%
X33655000Y-27500000D03*
X33655000Y-25000000D03*
X33655000Y-22500000D03*
%TD*%
D10*
%TO.C,SW6*%
X110726000Y-59345000D03*
X117226000Y-59345000D03*
X110726000Y-63845000D03*
X117226000Y-63845000D03*
%TD*%
D14*
%TO.C,LS1*%
X67230000Y-47070000D03*
X67230000Y-54570000D03*
D13*
X64730000Y-50820000D03*
X69730000Y-50820000D03*
%TD*%
%TO.C,U1*%
X111649000Y-42545000D03*
X114189000Y-42545000D03*
X116729000Y-42545000D03*
X119269000Y-42545000D03*
X119269000Y-34925000D03*
X116729000Y-34925000D03*
X114189000Y-34925000D03*
X111649000Y-34925000D03*
%TD*%
D10*
%TO.C,SW2*%
X39723000Y-99332000D03*
X46223000Y-99332000D03*
X39723000Y-103832000D03*
X46223000Y-103832000D03*
%TD*%
D13*
%TO.C,U1*%
X111649000Y-92545000D03*
X114189000Y-92545000D03*
X116729000Y-92545000D03*
X119269000Y-92545000D03*
X119269000Y-84925000D03*
X116729000Y-84925000D03*
X114189000Y-84925000D03*
X111649000Y-84925000D03*
%TD*%
D10*
%TO.C,SW3*%
X86596000Y-110508000D03*
X93096000Y-110508000D03*
X86596000Y-115008000D03*
X93096000Y-115008000D03*
%TD*%
%TO.C,SW3*%
X39596000Y-110508000D03*
X46096000Y-110508000D03*
X39596000Y-115008000D03*
X46096000Y-115008000D03*
%TD*%
%TO.C,SW3*%
X86596000Y-60508000D03*
X93096000Y-60508000D03*
X86596000Y-65008000D03*
X93096000Y-65008000D03*
%TD*%
%TO.C,SW4*%
X49450000Y-110420000D03*
X49450000Y-103920000D03*
X53950000Y-110420000D03*
X53950000Y-103920000D03*
%TD*%
D15*
%TO.C,C2*%
X80655000Y-94831000D03*
X80655000Y-89831000D03*
%TD*%
D11*
%TO.C,Q1*%
X106102000Y-49190000D03*
D12*
X104832000Y-49190000D03*
X103562000Y-49190000D03*
%TD*%
D15*
%TO.C,C2*%
X80655000Y-44831000D03*
X80655000Y-39831000D03*
%TD*%
D14*
%TO.C,LS1*%
X114230000Y-97070000D03*
X114230000Y-104570000D03*
D13*
X111730000Y-100820000D03*
X116730000Y-100820000D03*
%TD*%
%TO.C,U2*%
X45875000Y-72000000D03*
X48415000Y-72000000D03*
X50955000Y-72000000D03*
X53495000Y-72000000D03*
%TD*%
D10*
%TO.C,SW5*%
X78996000Y-60420000D03*
X78996000Y-53920000D03*
X83496000Y-60420000D03*
X83496000Y-53920000D03*
%TD*%
%TO.C,SW6*%
X110726000Y-109345000D03*
X117226000Y-109345000D03*
X110726000Y-113845000D03*
X117226000Y-113845000D03*
%TD*%
D11*
%TO.C,Q1*%
X106102000Y-99190000D03*
D12*
X104832000Y-99190000D03*
X103562000Y-99190000D03*
%TD*%
D11*
%TO.C,Q1*%
X59102000Y-99190000D03*
D12*
X57832000Y-99190000D03*
X56562000Y-99190000D03*
%TD*%
D13*
%TO.C,SW1*%
X80655000Y-77500000D03*
X80655000Y-75000000D03*
X80655000Y-72500000D03*
%TD*%
%TO.C,SW1*%
X80655000Y-27500000D03*
X80655000Y-25000000D03*
X80655000Y-22500000D03*
%TD*%
D10*
%TO.C,SW4*%
X96450000Y-60420000D03*
X96450000Y-53920000D03*
X100950000Y-60420000D03*
X100950000Y-53920000D03*
%TD*%
%TO.C,SW3*%
X39596000Y-60508000D03*
X46096000Y-60508000D03*
X39596000Y-65008000D03*
X46096000Y-65008000D03*
%TD*%
D13*
%TO.C,U2*%
X92875000Y-72000000D03*
X95415000Y-72000000D03*
X97955000Y-72000000D03*
X100495000Y-72000000D03*
%TD*%
D10*
%TO.C,SW4*%
X49450000Y-60420000D03*
X49450000Y-53920000D03*
X53950000Y-60420000D03*
X53950000Y-53920000D03*
%TD*%
D14*
%TO.C,LS1*%
X114230000Y-47070000D03*
X114230000Y-54570000D03*
D13*
X111730000Y-50820000D03*
X116730000Y-50820000D03*
%TD*%
D10*
%TO.C,SW6*%
X63726000Y-109345000D03*
X70226000Y-109345000D03*
X63726000Y-113845000D03*
X70226000Y-113845000D03*
%TD*%
%TO.C,SW5*%
X31996000Y-110420000D03*
X31996000Y-103920000D03*
X36496000Y-110420000D03*
X36496000Y-103920000D03*
%TD*%
%TO.C,SW5*%
X78996000Y-110420000D03*
X78996000Y-103920000D03*
X83496000Y-110420000D03*
X83496000Y-103920000D03*
%TD*%
D13*
%TO.C,U1*%
X64649000Y-92545000D03*
X67189000Y-92545000D03*
X69729000Y-92545000D03*
X72269000Y-92545000D03*
X72269000Y-84925000D03*
X69729000Y-84925000D03*
X67189000Y-84925000D03*
X64649000Y-84925000D03*
%TD*%
D10*
%TO.C,SW6*%
X63726000Y-59345000D03*
X70226000Y-59345000D03*
X63726000Y-63845000D03*
X70226000Y-63845000D03*
%TD*%
D13*
%TO.C,U1*%
X64649000Y-42545000D03*
X67189000Y-42545000D03*
X69729000Y-42545000D03*
X72269000Y-42545000D03*
X72269000Y-34925000D03*
X69729000Y-34925000D03*
X67189000Y-34925000D03*
X64649000Y-34925000D03*
%TD*%
D10*
%TO.C,SW5*%
X31996000Y-60420000D03*
X31996000Y-53920000D03*
X36496000Y-60420000D03*
X36496000Y-53920000D03*
%TD*%
D14*
%TO.C,LS1*%
X67230000Y-97070000D03*
X67230000Y-104570000D03*
D13*
X64730000Y-100820000D03*
X69730000Y-100820000D03*
%TD*%
D15*
%TO.C,C2*%
X33655000Y-44831000D03*
X33655000Y-39831000D03*
%TD*%
%TO.C,C2*%
X33655000Y-94831000D03*
X33655000Y-89831000D03*
%TD*%
D16*
%TO.C,R5*%
X36830000Y-100820000D03*
D17*
X31750000Y-100820000D03*
%TD*%
D16*
%TO.C,R5*%
X83830000Y-50820000D03*
D17*
X78750000Y-50820000D03*
%TD*%
D16*
%TO.C,R8*%
X107833000Y-108420000D03*
D17*
X107833000Y-113500000D03*
%TD*%
D16*
%TO.C,R3*%
X54000000Y-100800000D03*
D17*
X48920000Y-100800000D03*
%TD*%
D16*
%TO.C,R4*%
X31750000Y-63500000D03*
D17*
X36830000Y-63500000D03*
%TD*%
D15*
%TO.C,C1*%
X113080000Y-81115000D03*
X118080000Y-81115000D03*
%TD*%
D16*
%TO.C,R2*%
X48895000Y-66040000D03*
D17*
X53975000Y-66040000D03*
%TD*%
D18*
%TO.C,J1*%
X110600000Y-72372000D03*
D19*
X110600000Y-74912000D03*
X110600000Y-77452000D03*
%TD*%
D18*
%TO.C,J1*%
X63600000Y-22372000D03*
D19*
X63600000Y-24912000D03*
X63600000Y-27452000D03*
%TD*%
D16*
%TO.C,R3*%
X101000000Y-100800000D03*
D17*
X95920000Y-100800000D03*
%TD*%
D16*
%TO.C,R2*%
X95895000Y-116040000D03*
D17*
X100975000Y-116040000D03*
%TD*%
D18*
%TO.C,J1*%
X63600000Y-72372000D03*
D19*
X63600000Y-74912000D03*
X63600000Y-77452000D03*
%TD*%
D16*
%TO.C,R4*%
X31750000Y-113500000D03*
D17*
X36830000Y-113500000D03*
%TD*%
D16*
%TO.C,R1*%
X31750000Y-98260000D03*
D17*
X36830000Y-98260000D03*
%TD*%
D16*
%TO.C,R6*%
X54000000Y-113500000D03*
D17*
X48920000Y-113500000D03*
%TD*%
D16*
%TO.C,R2*%
X48895000Y-116040000D03*
D17*
X53975000Y-116040000D03*
%TD*%
D16*
%TO.C,R2*%
X95895000Y-66040000D03*
D17*
X100975000Y-66040000D03*
%TD*%
D16*
%TO.C,R5*%
X36830000Y-50820000D03*
D17*
X31750000Y-50820000D03*
%TD*%
D15*
%TO.C,BT1*%
X86400000Y-39325000D03*
X94500000Y-25325000D03*
X102600000Y-39325000D03*
D20*
X80500000Y-34925000D03*
X100500000Y-34925000D03*
%TD*%
D15*
%TO.C,BT1*%
X39400000Y-39325000D03*
X47500000Y-25325000D03*
X55600000Y-39325000D03*
D20*
X33500000Y-34925000D03*
X53500000Y-34925000D03*
%TD*%
D16*
%TO.C,R8*%
X107833000Y-58420000D03*
D17*
X107833000Y-63500000D03*
%TD*%
D16*
%TO.C,R8*%
X60833000Y-108420000D03*
D17*
X60833000Y-113500000D03*
%TD*%
D16*
%TO.C,R1*%
X78750000Y-48260000D03*
D17*
X83830000Y-48260000D03*
%TD*%
D16*
%TO.C,R1*%
X31750000Y-48260000D03*
D17*
X36830000Y-48260000D03*
%TD*%
D16*
%TO.C,R7*%
X58420000Y-108420000D03*
D17*
X58420000Y-113500000D03*
%TD*%
D16*
%TO.C,R3*%
X54000000Y-50800000D03*
D17*
X48920000Y-50800000D03*
%TD*%
D16*
%TO.C,R7*%
X58420000Y-58420000D03*
D17*
X58420000Y-63500000D03*
%TD*%
D16*
%TO.C,R3*%
X101000000Y-50800000D03*
D17*
X95920000Y-50800000D03*
%TD*%
D15*
%TO.C,C1*%
X66080000Y-81115000D03*
X71080000Y-81115000D03*
%TD*%
D16*
%TO.C,R6*%
X54000000Y-63500000D03*
D17*
X48920000Y-63500000D03*
%TD*%
D16*
%TO.C,R6*%
X101000000Y-63500000D03*
D17*
X95920000Y-63500000D03*
%TD*%
D15*
%TO.C,C1*%
X113080000Y-31115000D03*
X118080000Y-31115000D03*
%TD*%
D16*
%TO.C,R7*%
X105420000Y-108420000D03*
D17*
X105420000Y-113500000D03*
%TD*%
D16*
%TO.C,R1*%
X78750000Y-98260000D03*
D17*
X83830000Y-98260000D03*
%TD*%
D15*
%TO.C,C1*%
X66080000Y-31115000D03*
X71080000Y-31115000D03*
%TD*%
D16*
%TO.C,R4*%
X78750000Y-113500000D03*
D17*
X83830000Y-113500000D03*
%TD*%
D16*
%TO.C,R5*%
X83830000Y-100820000D03*
D17*
X78750000Y-100820000D03*
%TD*%
D16*
%TO.C,R8*%
X60833000Y-58420000D03*
D17*
X60833000Y-63500000D03*
%TD*%
D16*
%TO.C,R4*%
X78750000Y-63500000D03*
D17*
X83830000Y-63500000D03*
%TD*%
D16*
%TO.C,R6*%
X101000000Y-113500000D03*
D17*
X95920000Y-113500000D03*
%TD*%
D16*
%TO.C,R7*%
X105420000Y-58420000D03*
D17*
X105420000Y-63500000D03*
%TD*%
D15*
%TO.C,BT1*%
X39400000Y-89325000D03*
X47500000Y-75325000D03*
X55600000Y-89325000D03*
D20*
X33500000Y-84925000D03*
X53500000Y-84925000D03*
%TD*%
D15*
%TO.C,BT1*%
X86400000Y-89325000D03*
X94500000Y-75325000D03*
X102600000Y-89325000D03*
D20*
X80500000Y-84925000D03*
X100500000Y-84925000D03*
%TD*%
D18*
%TO.C,J1*%
X110600000Y-22372000D03*
D19*
X110600000Y-24912000D03*
X110600000Y-27452000D03*
%TD*%
M02*
